<?xml version="1.0" standalone="no"?><!DOCTYPE svg PUBLIC "-//W3C//DTD SVG 1.1//EN" "http://www.w3.org/Graphics/SVG/1.1/DTD/svg11.dtd"><svg t="1501931758557" class="icon" style="" viewBox="0 0 1024 1024" version="1.1" xmlns="http://www.w3.org/2000/svg" p-id="4592" xmlns:xlink="http://www.w3.org/1999/xlink" width="64" height="64"><defs><style type="text/css"></style></defs><path d="M957.944038 616.1404c0-70.536484-52.454669-134.089046-118.990833-150.03606-2.808517-110.581663-95.497784-209.956901-208.330971-209.956901-66.102037 0-125.678852 42.524005-163.688547 89.981091-21.309101-27.133985-51.791191-44.990545-89.284848-44.990545-64.37167 0-119.046123 56.515398-119.046123 119.974786 0 5.518742-0.788392 24.692018 0 29.993697-12.091062-11.24738-30.227143-14.996848-59.523573-14.996848-93.310765 0-133.927272 71.366855-133.927272 163.35476 0 92.01555 75.61086 166.576927 168.921625 166.576927h188.217767c32.873886 0 59.523573-26.857536 59.523574-59.987393V586.079127h-59.523574c-13.422113 0-16.337114 1.023885-24.009087-6.708497-7.669925-7.72931-7.669925-20.292383 0-27.057193L512.386005 438.2864c3.836498-3.866191 9.58971-5.798263 14.382517-5.798263 4.796903 0 10.549091 0.966548 14.382517 5.798263l114.105876 114.027037c7.671973 7.732382 7.671973 20.295455 0 28.024765-7.669925 6.76481-12.167853 5.740925-24.633657 5.740925h-59.523573V706.053914c0 33.129857 26.649687 59.987393 59.523573 59.987393h175.662886c83.813205-0.161774 151.714208-67.180188 151.714208-149.877357l-0.056314-0.02355z" fill="#ffffff" p-id="4593"></path></svg>